<svg xmlns="http://www.w3.org/2000/svg" xmlns:xlink="http://www.w3.org/1999/xlink" width="227" height="227" viewBox="0 0 227 227"><defs><clipPath id="b"><rect width="227" height="227"/></clipPath></defs><g id="a" clip-path="url(#b)"><g transform="translate(-340.373 -261.9)"><path d="M2280.279,354.174a109.541,109.541,0,0,0-10.4,23.171c-3.708,12.388-5.666,19.162-5.225,31.936s1.824,26.792,9.048,39.743,14.281,22.642,15.691,24.052,9.3,3.12,10.882,2.856,7.4-4.229,9.868-5.286,10.4-.793,10.4-.793a28.235,28.235,0,0,0,9.339,5.462,24.452,24.452,0,0,0,11.982,1.5c.7-.088,16.211-19.118,21.145-28.986s9.251-25.814,9.251-36.475a113.318,113.318,0,0,0-5.022-32.862c-3.172-9.779-9.515-19.911-10.925-21.585s-4.229-5.727-4.229-5.727l-30.483-8.105-23.7,1.5Z" transform="translate(-1864 -2)" fill="#1d0100" stroke="#020202" stroke-width="1"/><g transform="translate(128)"><path d="M362.885,359.107c1.057.793,11.709,25.039,11.595,38.9s-.891,24.092-8.246,40.545-21.22,30.022-25.49,30.835-6.259-.771-6.259-.771l22.066-38.519,5.42-42.777-1.936-25.55S361.828,358.314,362.885,359.107Z" fill="#7f3f24"/><path d="M2283.434,355.112s-7.3,23.525-6.4,40.2,3.871,34.841,11.614,49.73S2299.664,463.357,2301.9,465s5.509,5.956,11.911,5.956,9.529-.744,13.1-3.425,15.634-13.4,21.739-27.992,9.976-30.077,10.125-42.286-4.169-32.31-6.4-36.479-3.276-6.7-4.467-9.083-21.143-20.845-21.143-20.845l-21.143-4.02-17.867,12.06Z" transform="translate(-1990)" fill="#b37850"/><path d="M291.947,360.476c-1.394-.81-9.486,14.438-11.124,28.285a105.476,105.476,0,0,0,6.849,50.177c7.147,17.718,16.676,27.843,18.909,29.183s8.244,1.281,9.293.509-4.658-1.388-13.157-16.047A105.692,105.692,0,0,1,289.1,414.015c-1.509-10.662-2.3-17.756-1.428-28.827S293.342,361.285,291.947,360.476Z" fill="#7f3f24"/><path d="M2287.07,359.58s5.578,4.632,8.555,4.781-2.516,20.744-2.516,32.209,2.065,31,5.788,42.022,3.708,19.535,2.516,20.13-11.827-17.363-16.1-33.719a138.076,138.076,0,0,1-4.278-40.513C2281.478,375.26,2285.879,360.176,2287.07,359.58Z" transform="translate(-1990)" fill="rgba(227,182,151,0.32)"/><path d="M2327.111,354.392s6.105,3.891,10.751,4.084a54.2,54.2,0,0,0,10.621-1,108.17,108.17,0,0,1,7.933,43.048c-.774,23.615-11.356,42.732-16,49.894s-16.143,18.348-16.526,16.192.1-7.067,4.938-19.455,10.366-31.772,9.592-45.708-3.678-27.1-6-33.486S2327.111,354.392,2327.111,354.392Z" transform="translate(-1990)" fill="rgba(155,89,46,0.35)"/><path d="M2323.091,300.959c.529-10.572,8.588-25.338,21.673-27.632s23.876-1.3,31.54,3.858,7.667,8.621,7.667,12.585-2.467,4.405-4.493,4.229-4.934-3.788-4.934-3.788" transform="translate(-1990)" fill="none" stroke="#080808" stroke-linecap="round" stroke-width="1"/><path d="M2312.43,300.078c.055-12.992-13.271-29.4-24.047-32.246a54.585,54.585,0,0,0-20.874-1.084A23.387,23.387,0,0,0,2257.4,271.7c-4.257,3.856-3.151,8.1-2.235,9.019s3.55,2.291,6.757,0" transform="translate(-1990)" fill="none" stroke="#080808" stroke-linecap="round" stroke-width="1"/><path d="M2300.951,303.986a30.593,30.593,0,0,1,14.889-4.317,32.237,32.237,0,0,1,15.154,4.317l-14.418,22.964h-7.753Z" transform="translate(-1989 -1)" fill="#b37850" stroke="#080808" stroke-width="0.5"/><g transform="translate(30 1)"><g transform="translate(237 296)" fill="#fff" stroke="#010101" stroke-width="1"><ellipse cx="29" cy="29.5" rx="29" ry="29.5" stroke="none"/><ellipse cx="29" cy="29.5" rx="28.5" ry="29" fill="none"/></g><path d="M2291.776,297.662s9.677,10.548,8.784,30.8-12.052,25.437-12.052,25.437,2.314-.308,4.75-.895c5.151-1.08,20.374-8.174,20.717-26.354.38-20.151-13.962-26.511-19.762-28.4A24.155,24.155,0,0,0,2291.776,297.662Z" transform="translate(-2020)" fill="#bfc4c7"/><ellipse cx="15" cy="14.5" rx="15" ry="14.5" transform="translate(265 311)" fill="#010101"/><g transform="translate(588 652) rotate(180)"><g transform="translate(237 296)" fill="#fff"><path d="M 29.00000381469727 58.5 C 25.15337371826172 58.5 21.42199516296387 57.73371887207031 17.90950393676758 56.22245025634766 C 14.51602458953857 54.76237869262695 11.46812438964844 52.67192077636719 8.850464820861816 50.00912857055664 C 6.232224464416504 47.34574890136719 4.176584720611572 44.24423980712891 2.740644693374634 40.790771484375 C 1.253864645957947 37.21501159667969 0.5000045895576477 33.4162483215332 0.5000045895576477 29.5 C 0.5000045895576477 25.58374977111816 1.253864645957947 21.78499031066895 2.740644693374634 18.20923042297363 C 4.176584720611572 14.75576019287109 6.232224464416504 11.6542501449585 8.850464820861816 8.990870475769043 C 11.46812438964844 6.328080177307129 14.51602458953857 4.237619876861572 17.90950393676758 2.777549982070923 C 21.42199516296387 1.266280055046082 25.15337371826172 0.5 29.00000381469727 0.5 C 36.56720352172852 0.5 43.60312271118164 3.513060092926025 48.81168365478516 8.984149932861328 C 51.33743286132812 11.63720035552979 53.31713485717773 14.73806953430176 54.69579315185547 18.20060920715332 C 56.11556625366211 21.76642036437988 56.83545303344727 25.56744003295898 56.83545303344727 29.49807929992676 C 56.83545303344727 33.42876052856445 56.11556625366211 37.22998046875 54.69578552246094 40.79616165161133 C 53.31710433959961 44.25912094116211 51.33739471435547 47.36043930053711 48.81165313720703 50.01396179199219 C 43.60287475585938 55.48627090454102 36.56696319580078 58.5 29.00000381469727 58.5 Z" stroke="none"/><path d="M 29.00000381469727 1 C 25.22172546386719 1 21.55682373046875 1.752578735351562 18.10712432861328 3.236839294433594 C 14.77345275878906 4.671169281005859 11.77903366088867 6.725040435791016 9.207023620605469 9.341388702392578 C 6.633853912353516 11.95891952514648 4.61358642578125 15.007080078125 3.202323913574219 18.40119934082031 C 1.740962982177734 21.91579818725586 0.9999961853027344 25.64997863769531 0.9999961853027344 29.5 C 0.9999961853027344 33.35002136230469 1.740962982177734 37.08419799804688 3.202323913574219 40.59880065917969 C 4.61358642578125 43.992919921875 6.633853912353516 47.04108047485352 9.207023620605469 49.65861129760742 C 11.77903366088867 52.27495956420898 14.77345275878906 54.32883071899414 18.10712432861328 55.76316070556641 C 21.55682373046875 57.24742126464844 25.22172546386719 58 29.00000381469727 58 C 36.42872619628906 58 43.33601379394531 55.04140853881836 48.44948577880859 49.66923904418945 C 50.93101501464844 47.06216049194336 52.87627410888672 44.01461029052734 54.23124313354492 40.61122131347656 C 55.62748336791992 37.10414123535156 56.33544540405273 33.36514282226562 56.33544540405273 29.49807929992676 C 56.33544540405273 25.63106155395508 55.62749481201172 21.89226913452148 54.23125457763672 18.38557052612305 C 52.87632369995117 14.98260879516602 50.93107604980469 11.93550872802734 48.44954681396484 9.328910827636719 C 43.33629608154297 3.957931518554688 36.42898559570312 1 29.00000381469727 1 M 29.00000381469727 0 C 45.01625442504883 0 57.33544540405273 13.20568084716797 57.33544540405273 29.49807929992676 C 57.33544540405273 45.79047012329102 45.01625442504883 59 29.00000381469727 59 C 12.98374557495117 59 -3.814697265625e-06 45.79240036010742 -3.814697265625e-06 29.5 C -3.814697265625e-06 13.20759963989258 12.98374557495117 0 29.00000381469727 0 Z" stroke="none" fill="#020202"/></g><path d="M2290.043,297.332s11.411,10.879,10.518,31.128-12.228,25.468-12.228,25.468,1.059-.146,3.121-.475c4.727-.748,22.1-7.006,21.893-27.685-.2-20.2-16.178-26.679-18.893-27.45C2289.8,297.085,2290.043,297.332,2290.043,297.332Z" transform="translate(-2020)" fill="#bfc4c7"/><circle cx="15" cy="15" r="15" transform="translate(265 311)" fill="#010101"/></g></g><path d="M2308.3,353.325s3.127,3.722,7.445,3.573a9.6,9.6,0,0,0,6.849-3.573" transform="translate(-1990 0.097)" fill="none" stroke="#1b0000" stroke-linecap="round" stroke-width="2"/><path d="M2279.286,288.57s-4.947-.542-7.59.542a8.347,8.347,0,0,0-3.8,2.982" transform="translate(-1990)" fill="none" stroke="#080808" stroke-linecap="round" stroke-width="1"/><path d="M352.4,408.415s32.417,9.339,34.246,12.507,5.807,28.885,5.807,28.885" fill="none" stroke="#020202" stroke-linecap="round" stroke-width="1.5"/><path d="M352.4,408.415s31.615,8.991,32.761,10.938,13.4,27.488,13.4,27.488" transform="translate(6 -32)" fill="none" stroke="#020202" stroke-linecap="round" stroke-width="1.5"/><path d="M352.4,408.415s31.612,13.231,32.757,15.178,3.665,26,3.665,26" transform="translate(-9 35)" fill="none" stroke="#020202" stroke-linecap="round" stroke-width="1.5"/><path d="M2281.709,376.117s-29.925,7.363-31.474,9.686-13.045,26.485-13.045,26.485" transform="translate(-1990)" fill="none" stroke="#020202" stroke-linecap="round" stroke-linejoin="round" stroke-width="1.5"/><path d="M2281.709,376.117s-34.55,11.28-36.1,13.6-5.033,27.176-5.033,27.176" transform="translate(-1981 30)" fill="none" stroke="#020202" stroke-linecap="round" stroke-linejoin="round" stroke-width="1.5"/><path d="M2281.709,376.117s-30.73,11.767-32.279,14.089-3.523,25.918-3.523,25.918" transform="translate(-1974 66)" fill="none" stroke="#020202" stroke-linecap="round" stroke-linejoin="round" stroke-width="1.5"/></g><path d="M2186.531,303.932s3.526,1.079,4.848,2.841a16.612,16.612,0,0,1,2.114,4.405" transform="translate(-1686 -5)" fill="none" stroke="#000103" stroke-linecap="round" stroke-linejoin="round" stroke-width="1"/></g></g></svg>